REM MD5 134c772a89c6cc388e5b5b9949269a18
FILE "Moorhuhn X (Germany) (En,De).bin" BINARY
  TRACK 01 MODE2/2352
    INDEX 01 00:00:00
  TRACK 02 AUDIO
    INDEX 00 04:04:27
    INDEX 01 04:06:27
  TRACK 03 AUDIO
    INDEX 00 05:52:17
    INDEX 01 05:54:17
  TRACK 04 AUDIO
    INDEX 00 10:42:14
    INDEX 01 10:44:14
REM LEADOUT 14:56:11
